Coordinates
version=1
nRows=38
nColumns=12
inDegrees=yes

Units are S.I. units (second, meters, Newtons, ...)
Angles are in degrees

endheader
time	SC_y	SC_z	SC_x	AC_y	AC_z	AC_x	GH_y	GH_z	GH_yy	EL_x	PS_y
       0.0              -23.74          10.63          12.76          59.78           5.61          19.38         -74.84          69.89         -27.32          121.6          159.8
  0.001092              -23.74          10.63          12.77          59.78          5.607          19.38         -74.84          69.89         -27.33          121.6          159.8
  0.002183              -23.74          10.63          12.78          59.77          5.604          19.37         -74.85          69.88         -27.35          121.6          159.8
  0.003275              -23.74          10.63          12.79          59.77          5.601          19.37         -74.85          69.88         -27.36          121.6          159.8
  0.004366              -23.74          10.63           12.8          59.77          5.598          19.36         -74.85          69.88         -27.37          121.6          159.8
  0.005458              -23.74          10.63          12.82          59.76          5.594          19.35         -74.85          69.88         -27.39          121.6          159.8
  0.006549              -23.75          10.63          12.83          59.76           5.59          19.35         -74.86          69.88         -27.41          121.6          159.8
  0.007641              -23.75          10.62          12.84          59.75          5.586          19.34         -74.86          69.87         -27.42          121.6          159.8
  0.008732              -23.75          10.62          12.86          59.75          5.582          19.33         -74.86          69.87         -27.44          121.6          159.8
  0.009824              -23.75          10.62          12.87          59.74          5.578          19.33         -74.87          69.87         -27.46          121.6          159.8
   0.01092              -23.75          10.62          12.89          59.73          5.573          19.32         -74.87          69.87         -27.48          121.6          159.8
   0.01201              -23.75          10.62          12.91          59.73          5.567          19.31         -74.87          69.86         -27.51          121.6          159.8
    0.0131              -23.75          10.61          12.93          59.72          5.562           19.3         -74.88          69.86         -27.53          121.6          159.8
   0.01419              -23.75          10.61          12.95          59.71          5.555          19.29         -74.88          69.86         -27.56          121.6          159.8
   0.01528              -23.76          10.61          12.98           59.7          5.549          19.28         -74.89          69.85         -27.59          121.6          159.8
   0.01637              -23.76          10.61           13.0          59.69          5.542          19.27         -74.89          69.85         -27.62          121.6          159.8
   0.01746              -23.76           10.6          13.03          59.68          5.534          19.25          -74.9          69.85         -27.66          121.6          159.7
   0.01856              -23.76           10.6          13.06          59.67          5.525          19.24          -74.9          69.84         -27.69          121.6          159.7
   0.01965              -23.76           10.6          13.09          59.66          5.516          19.22         -74.91          69.84         -27.74          121.7          159.7
   0.02074              -23.77          10.59          13.13          59.65          5.505          19.21         -74.92          69.83         -27.78          121.7          159.7
   0.02183              -23.77          10.59          13.17          59.63          5.494          19.19         -74.93          69.83         -27.83          121.7          159.7
   0.02292              -23.77          10.58          13.21          59.62          5.482          19.17         -74.94          69.82         -27.89          121.7          159.7
   0.02401              -23.78          10.58          13.26           59.6          5.468          19.14         -74.95          69.81         -27.95          121.7          159.7
    0.0251              -23.78          10.57          13.31          59.58          5.453          19.12         -74.96           69.8         -28.01          121.7          159.7
    0.0262              -23.78          10.57          13.37          59.56          5.436          19.09         -74.97          69.79         -28.09          121.7          159.7
   0.02729              -23.79          10.56          13.44          59.54          5.417          19.06         -74.98          69.78         -28.17          121.7          159.7
   0.02838              -23.79          10.55          13.51          59.51          5.396          19.02          -75.0          69.77         -28.26          121.7          159.7
   0.02947               -23.8          10.54          13.59          59.48          5.373          18.98         -75.02          69.76         -28.37          121.7          159.7
   0.03056              -23.81          10.53          13.69          59.44          5.346          18.94         -75.04          69.75         -28.49          121.8          159.7
   0.03165              -23.82          10.52          13.79          59.41          5.316          18.89         -75.06          69.73         -28.62          121.8          159.6
   0.03275              -23.82          10.51          13.91          59.36          5.281          18.83         -75.09          69.71         -28.77          121.8          159.6
   0.03384              -23.83          10.49          14.05          59.31          5.241          18.76         -75.11          69.69         -28.95          121.8          159.6
   0.03493              -23.85          10.48          14.21          59.25          5.195          18.68         -75.15          69.67         -29.15          121.9          159.6
   0.03602              -23.86          10.46           14.4          59.18          5.142          18.59         -75.19          69.64         -29.39          121.9          159.6
   0.03711              -23.87          10.43          14.62           59.1          5.079          18.49         -75.23           69.6         -29.67          121.9          159.5
    0.0382              -23.89           10.4          14.88          59.01          5.006          18.36         -75.29          69.56         -29.99          122.0          159.5
   0.03929              -23.91          10.37          15.18           58.9          4.918          18.22         -75.35          69.52         -30.38          122.0          159.4
   0.04039              -23.94          10.33          15.55          58.76          4.813          18.04         -75.43          69.46         -30.84          122.1          159.4
